<svg xmlns="http://www.w3.org/2000/svg">
    <path fill="#f5f5f5" d="M0 0h72v72H0z"/>
    <path fill="#d9d9d9" d="m22.247 19.043-2.722-.006v38.107h2.722Z" />
    <g fill="#393939">
        <path d="M23.971 30.378h7.168v1.089h-7.168Z"/>
        <path d="M23.971 34.008h18.963v1.089H23.971Z"/>
        <path d="M23.971 37.637h18.963v1.089H23.971Z"/>
        <path d="M23.971 41.266h18.963v1.089H23.971Z"/>
        <path d="M23.971 44.895h18.963v1.089H23.971Z"/>
        <path d="M23.971 48.525h18.963v1.089H23.971Z"/>
        <path d="M23.971 52.154h18.963v1.089H23.971Z"/>
        <path d="M21.449 21.779h1.089v1.341h-1.089Z"/>
        <path d="M21.449 24.193h1.089v8.636h-1.089Z"/>
    </g>
    <path fill="#f3581e" d="m53.253 19.214-5.8-5.055a.544.544 0 0 0-.3-.131l-22.159-.023a.544.544 0 0 0-.544.544v4.492h1.082v-3.952h21v4.552a.544.544 0 0 0 .544.544h5.278v31.829h-4.926v1.089h5.47a.544.544 0 0 0 .544-.544V19.62a.544.544 0 0 0-.187-.41Zm-5.635-.114v-3.357l3.848 3.353Z"/>
    <path fill="#393939" d="m47.809 23.751-5.8-5.055a.545.545 0 0 0-.3-.131l-22.159-.023a.544.544 0 0 0-.544.544v38.019a.544.544 0 0 0 .544.544h27.901a.544.544 0 0 0 .544-.544V24.157a.544.544 0 0 0-.187-.41Zm-5.635-3.467 3.848 3.353h-3.849Zm4.733 36.267H20.088V19.626h21v4.552a.544.544 0 0 0 .544.544h5.278Z"/>
</svg>