<svg xmlns="http://www.w3.org/2000/svg" width="72" height="72" viewBox="0 0 72 72">
  <g id="Group_885" data-name="Group 885" transform="translate(-816.473 -2563.875)">
    <rect id="Rectangle_1240" data-name="Rectangle 1240" width="23" height="31" transform="translate(816.473 2563.875)" fill="#ffffff"/>
    <g id="document" transform="translate(768.21 2561.514)">
      <path id="Path_1564" data-name="Path 1564" d="M74.853,71.007,72,71v39.946h2.853Z" transform="translate(-5.238 -50.234)" fill="#d9d9d9"/>
      <g id="Group_734" data-name="Group 734" transform="translate(68.779 23.64)">
        <path id="Path_1565" data-name="Path 1565" d="M121,196h7.514v1.141H121Z" transform="translate(-118.356 -186.986)" fill="#393939"/>
        <path id="Path_1566" data-name="Path 1566" d="M121,236h19.878v1.141H121Z" transform="translate(-118.356 -223.181)" fill="#393939"/>
        <path id="Path_1567" data-name="Path 1567" d="M121,276h19.878v1.141H121Z" transform="translate(-118.356 -259.377)" fill="#393939"/>
        <path id="Path_1568" data-name="Path 1568" d="M121,316h19.878v1.141H121Z" transform="translate(-118.356 -295.572)" fill="#393939"/>
        <path id="Path_1569" data-name="Path 1569" d="M121,356h19.878v1.141H121Z" transform="translate(-118.356 -331.768)" fill="#393939"/>
        <path id="Path_1570" data-name="Path 1570" d="M121,396h19.878v1.141H121Z" transform="translate(-118.356 -367.964)" fill="#393939"/>
        <path id="Path_1571" data-name="Path 1571" d="M121,436h19.878v1.141H121Z" transform="translate(-118.356 -404.159)" fill="#393939"/>
        <path id="Path_1572" data-name="Path 1572" d="M93.205,101.222h1.141v1.406H93.205Z" transform="translate(-93.205 -101.222)" fill="#393939"/>
        <path id="Path_1573" data-name="Path 1573" d="M93.205,127.823h1.141v9.052H93.205Z" transform="translate(-93.205 -125.293)" fill="#393939"/>
      </g>
      <path id="Path_1574" data-name="Path 1574" d="M156.411,20.947l-6.082-5.3a.571.571,0,0,0-.318-.138l-23.228-.024a.571.571,0,0,0-.571.571v4.709h1.141V16.627h22.009V21.4a.571.571,0,0,0,.571.571h5.533V55.34H150.3v1.141h5.734a.571.571,0,0,0,.571-.571V21.378a.571.571,0,0,0-.2-.43Zm-5.907-.119V17.313l4.034,3.515Z" transform="translate(-54.293)" fill="#f3581e"/>
      <path id="Path_1575" data-name="Path 1575" d="M96.411,70.947l-6.082-5.3a.571.571,0,0,0-.318-.138l-23.228-.024a.571.571,0,0,0-.571.571V105.91a.571.571,0,0,0,.571.571H96.036a.571.571,0,0,0,.571-.571V71.378a.571.571,0,0,0-.2-.43ZM90.5,67.313l4.034,3.515H90.5Zm4.962,38.026H67.353V66.627H89.362V71.4a.571.571,0,0,0,.571.571h5.533Z" transform="translate(0 -45.245)" fill="#393939"/>
    </g>
  </g>
</svg>
