<svg xmlns="http://www.w3.org/2000/svg" width="72" height="72" viewBox="0 0 72 72">
  <g id="Group_744" data-name="Group 744" transform="translate(-333 -2563.875)">
    <rect id="Rectangle_1187" data-name="Rectangle 1187" width="72" height="72" transform="translate(333 2563.875)" fill="#f5f5f5"/>
    <g id="electricity" transform="translate(298.527 2571)">
      <path id="Path_1558" data-name="Path 1558" d="M151,471.122v0h2.842v0A7.074,7.074,0,0,1,159.656,468h-2.842A7.074,7.074,0,0,0,151,471.122Z" transform="translate(-90.472 -419.144)" fill="#d4e1f4"/>
      <g id="Group_733" data-name="Group 733" transform="translate(59.919 12.003)">
        <path id="Path_1559" data-name="Path 1559" d="M0,0H1.137V3.807H0Z" transform="matrix(0.999, -0.046, 0.046, 0.999, 11.928, 0.411)" fill="#393939"/>
        <path id="Path_1560" data-name="Path 1560" d="M228.375,81.909l1.7,1.617.784-.823-2.226-2.122.793-.89-.849-.756-.349.392-.865-.041-.178,3.8,1.135.053Z" transform="translate(-219.357 -78.935)" fill="#393939"/>
        <path id="Path_1561" data-name="Path 1561" d="M159.3,216l-1.176-25.362-1.135.053.08,1.731-2.673-2.21-.724.876,3.075,2.542-3.815,3.016.279-5.955-1.136-.053L150.885,216a7.665,7.665,0,0,0-6.215,3.32.568.568,0,0,0,.464.9l19.974,0a.568.568,0,0,0,.468-.89A7.669,7.669,0,0,0,159.3,216Zm-1.443-6.589-4.946-3.17,4.652-3.18Zm-.4-8.547-4.227-3.007,3.944-3.118Zm-4.637-1.9L157.095,202l-4.563,3.119Zm4.578,11.509-5.262,3.118.295-6.3Zm-5.326,4.476,5.877-3.482.21,4.535h-6.136Zm-5.735,4.134a6.532,6.532,0,0,1,4.651-1.944h8.264a6.533,6.533,0,0,1,4.653,1.947Z" transform="translate(-144.566 -179.67)" fill="#393939"/>
      </g>
      <path id="Path_1562" data-name="Path 1562" d="M89.452,10.039l-13.491-5A.662.662,0,0,0,75.73,5H65.218a.663.663,0,0,0-.231.041L51.433,10.063a.568.568,0,0,0-.371.533v1.786a.568.568,0,0,0,.568.568h.477v.612h-.081a.568.568,0,0,0-.562.65l.451,3.1a.568.568,0,0,0,.562.486h2.7a.668.668,0,0,0,.658-.569l.423-2.909a.663.663,0,0,0-.627-.759V12.95H85.32v.614a.663.663,0,0,0-.627.759l.423,2.909a.668.668,0,0,0,.658.569h2.612a.668.668,0,0,0,.658-.569l.423-2.909a.663.663,0,0,0-.627-.759V12.95h.38a.665.665,0,0,0,.665-.665V10.663a.667.667,0,0,0-.433-.623Zm-.7,1.774H84.3L80.643,7.988l8.106,3Zm-20.388,0H58.217l4.525-4.728,2.218-.822ZM66.215,6.137h8.5l-3.567,5.676H69.694Zm9.768.125,2.223.824,4.525,4.728H72.494ZM60.3,7.988l-3.661,3.825H52.2v-.822Zm-5.539,8.676h-1.8L52.684,14.7h2.367Zm-.274-3.1H53.244V12.95h1.247Zm33.487,3.1h-1.8L85.9,14.7h2.367Zm-.275-3.1H86.456V12.95H87.7Z" transform="translate(0 0)" fill="#f3581e"/>
      <path id="Path_1563" data-name="Path 1563" d="M89.452,122.1l-13.491-5a.664.664,0,0,0-.231-.041H65.218a.665.665,0,0,0-.231.041l-13.554,5.021a.568.568,0,0,0-.371.533v1.786a.568.568,0,0,0,.568.568h.477v.612h-.081a.568.568,0,0,0-.562.65l.451,3.1a.568.568,0,0,0,.562.487h2.7a.668.668,0,0,0,.658-.569l.423-2.909a.663.663,0,0,0-.627-.759v-.614h4.731a.568.568,0,1,0,0-1.137H58.217l4.525-4.728,2.218-.822,3.4,5.55H65.284a.568.568,0,0,0,0,1.137H85.32v.614a.663.663,0,0,0-.627.759l.423,2.909a.668.668,0,0,0,.658.569h2.612a.668.668,0,0,0,.658-.569l.423-2.909a.663.663,0,0,0-.627-.759v-.614h.38a.665.665,0,0,0,.665-.665v-1.622A.667.667,0,0,0,89.452,122.1Zm-.7,1.774H84.3l-3.661-3.825,8.106,3Zm-12.766-5.551,2.223.824,4.525,4.728H72.494Zm-21.217,10.4h-1.8l-.286-1.966h2.367Zm-.274-3.1H53.244v-.612h1.247Zm2.152-1.749H52.2v-.822l8.106-3Zm9.571-5.676h8.5l-3.567,5.676H69.694Zm21.763,10.527h-1.8L85.9,126.76h2.367Zm-.275-3.1H86.456v-.612H87.7Z" transform="translate(0 -101.447)" fill="#f3581e"/>
    </g>
  </g>
</svg>
