<svg xmlns="http://www.w3.org/2000/svg" width="16.583" height="23.585" viewBox="0 0 16.583 23.585">
  <g id="placeholder" transform="translate(-76)">
    <g id="Group_60" data-name="Group 60" transform="translate(76)">
      <g id="Group_59" data-name="Group 59" transform="translate(0)">
        <path id="Path_17" data-name="Path 17" d="M84.291,0a8.293,8.293,0,0,0-7.054,12.652L83.82,23.258a.691.691,0,0,0,.587.327h.005A.691.691,0,0,0,85,23.249l6.414-10.709A8.293,8.293,0,0,0,84.291,0Zm5.936,11.83L84.4,21.566l-5.984-9.643a6.914,6.914,0,1,1,11.815-.093Z" transform="translate(-76)" fill="#393939"/>
      </g>
    </g>
    <g id="Group_62" data-name="Group 62" transform="translate(80.146 4.146)">
      <g id="Group_61" data-name="Group 61" transform="translate(0)">
        <path id="Path_18" data-name="Path 18" d="M170.146,90a4.146,4.146,0,1,0,4.146,4.146A4.15,4.15,0,0,0,170.146,90Zm0,6.919a2.773,2.773,0,1,1,2.768-2.773A2.775,2.775,0,0,1,170.146,96.919Z" transform="translate(-166 -90)" fill="#393939"/>
      </g>
    </g>
  </g>
</svg>
