<svg xmlns="http://www.w3.org/2000/svg" width="24.779" height="17.532" viewBox="0 0 24.779 17.532">
  <g id="noun_Mail_867234" transform="translate(-7 -22)">
    <g id="Group_56" data-name="Group 56" transform="translate(7 22)">
      <path id="Path_16" data-name="Path 16" d="M8.756,974.362A1.829,1.829,0,0,0,7,976.241v13.775a1.829,1.829,0,0,0,1.756,1.879H30.024a1.829,1.829,0,0,0,1.756-1.879V976.241a1.829,1.829,0,0,0-1.756-1.878Zm.3,1.252H29.726l-9.833,9.549a.8.8,0,0,1-1.008,0Zm-.9.8,7.194,6.986-7.194,6.477Zm22.474,0v13.462L23.433,983.4ZM16.22,984.254l1.9,1.839a1.8,1.8,0,0,0,2.539,0l1.9-1.839,7.1,6.389H9.116Z" transform="translate(-7 -974.362)" fill="#393939"/>
    </g>
  </g>
</svg>
