<svg xmlns="http://www.w3.org/2000/svg" xmlns:xlink="http://www.w3.org/1999/xlink" width="1024" zoomAndPan="magnify" viewBox="0 0 768 767.999994" height="1024" preserveAspectRatio="xMidYMid meet" version="1.0"><defs><clipPath id="4f1e582497"><path d="M 44 182.53125 L 722 182.53125 L 722 639 L 44 639 Z M 44 182.53125 " clip-rule="nonzero"/></clipPath><clipPath id="000a5423bb"><path d="M 41.015625 164.039062 L 106 164.039062 L 106 231.933594 L 41.015625 231.933594 Z M 41.015625 164.039062 " clip-rule="nonzero"/></clipPath><clipPath id="5a0a0b4ad6"><path d="M 73.441406 164.039062 C 55.53125 164.039062 41.015625 179.140625 41.015625 197.769531 C 41.015625 216.398438 55.53125 231.5 73.441406 231.5 C 91.351562 231.5 105.867188 216.398438 105.867188 197.769531 C 105.867188 179.140625 91.351562 164.039062 73.441406 164.039062 " clip-rule="nonzero"/></clipPath><clipPath id="3096a4975c"><path d="M 653.136719 164.039062 L 718 164.039062 L 718 231.933594 L 653.136719 231.933594 Z M 653.136719 164.039062 " clip-rule="nonzero"/></clipPath><clipPath id="12883ccef7"><path d="M 685.5625 164.039062 C 667.652344 164.039062 653.136719 179.140625 653.136719 197.769531 C 653.136719 216.398438 667.652344 231.5 685.5625 231.5 C 703.46875 231.5 717.988281 216.398438 717.988281 197.769531 C 717.988281 179.140625 703.46875 164.039062 685.5625 164.039062 " clip-rule="nonzero"/></clipPath></defs><rect x="-76.8" width="921.6" fill="#ffffff" y="-76.799999" height="921.599993" fill-opacity="1"/><rect x="-76.8" width="921.6" fill="#ffffff" y="-76.799999" height="921.599993" fill-opacity="1"/><rect x="-76.8" width="921.6" fill="#ffffff" y="-76.799999" height="921.599993" fill-opacity="1"/><path fill="#3a7be4" d="M 696.488281 171.691406 C 695.875 171.253906 695.238281 170.84375 694.582031 170.46875 C 693.929688 170.09375 693.257812 169.753906 692.566406 169.441406 C 691.878906 169.132812 691.175781 168.859375 690.460938 168.617188 C 689.746094 168.378906 689.019531 168.171875 688.285156 168.003906 C 687.546875 167.835938 686.804688 167.703125 686.054688 167.605469 C 685.308594 167.511719 684.554688 167.449219 683.800781 167.429688 C 683.046875 167.40625 682.292969 167.421875 681.539062 167.472656 C 680.785156 167.523438 680.035156 167.613281 679.292969 167.738281 C 678.546875 167.863281 677.808594 168.023438 677.082031 168.222656 C 676.351562 168.421875 675.636719 168.652344 674.929688 168.921875 C 674.222656 169.191406 673.53125 169.492188 672.855469 169.828125 C 672.179688 170.164062 671.523438 170.53125 670.882812 170.933594 C 670.242188 171.335938 669.625 171.765625 669.027344 172.226562 C 668.429688 172.6875 667.855469 173.179688 667.308594 173.695312 C 666.757812 174.214844 666.234375 174.757812 665.738281 175.328125 C 665.242188 175.894531 664.777344 176.488281 664.339844 177.101562 L 400.921875 547.726562 C 400.382812 548.335938 399.8125 548.917969 399.210938 549.46875 C 398.609375 550.019531 397.980469 550.535156 397.324219 551.019531 C 396.667969 551.503906 395.988281 551.949219 395.285156 552.363281 C 394.582031 552.773438 393.859375 553.148438 393.117188 553.484375 C 392.375 553.820312 391.617188 554.113281 390.84375 554.367188 C 390.066406 554.621094 389.28125 554.835938 388.484375 555.007812 C 387.6875 555.179688 386.882812 555.308594 386.074219 555.394531 C 385.261719 555.480469 384.449219 555.523438 383.636719 555.523438 C 382.820312 555.523438 382.007812 555.480469 381.195312 555.394531 C 380.386719 555.308594 379.582031 555.179688 378.785156 555.007812 C 377.988281 554.835938 377.203125 554.621094 376.429688 554.367188 C 375.65625 554.113281 374.894531 553.820312 374.152344 553.484375 C 373.410156 553.148438 372.6875 552.773438 371.984375 552.363281 C 371.28125 551.949219 370.601562 551.503906 369.945312 551.019531 C 369.289062 550.535156 368.660156 550.019531 368.0625 549.46875 C 367.460938 548.917969 366.890625 548.335938 366.351562 547.726562 L 102.703125 177.21875 C 102.292969 176.542969 101.851562 175.890625 101.378906 175.257812 C 100.902344 174.628906 100.398438 174.023438 99.859375 173.445312 C 99.324219 172.867188 98.757812 172.316406 98.164062 171.796875 C 97.570312 171.277344 96.953125 170.789062 96.308594 170.332031 C 95.667969 169.875 95 169.453125 94.3125 169.0625 C 93.628906 168.675781 92.921875 168.324219 92.199219 168.007812 C 91.476562 167.691406 90.738281 167.414062 89.984375 167.171875 C 89.234375 166.933594 88.472656 166.730469 87.699219 166.570312 C 86.925781 166.40625 86.148438 166.285156 85.363281 166.203125 C 84.578125 166.121094 83.789062 166.078125 83 166.078125 C 82.210938 166.078125 81.425781 166.117188 80.640625 166.195312 C 79.855469 166.273438 79.074219 166.394531 78.300781 166.554688 C 77.527344 166.714844 76.765625 166.914062 76.011719 167.152344 C 75.261719 167.390625 74.523438 167.664062 73.796875 167.976562 C 73.074219 168.292969 72.367188 168.640625 71.679688 169.027344 C 70.992188 169.414062 70.324219 169.835938 69.679688 170.289062 C 69.035156 170.746094 68.414062 171.230469 67.820312 171.75 C 67.226562 172.269531 66.65625 172.816406 66.121094 173.394531 C 65.582031 173.96875 65.074219 174.574219 64.597656 175.203125 C 64.121094 175.832031 63.675781 176.480469 63.265625 177.15625 C 62.855469 177.832031 62.484375 178.523438 62.144531 179.238281 C 61.804688 179.949219 61.503906 180.679688 61.242188 181.421875 C 60.976562 182.164062 60.753906 182.921875 60.566406 183.6875 C 60.382812 184.453125 60.234375 185.230469 60.128906 186.011719 C 60.023438 186.792969 59.957031 187.578125 59.929688 188.367188 C 59.90625 189.15625 59.921875 189.941406 59.976562 190.730469 C 60.03125 191.515625 60.128906 192.296875 60.261719 193.074219 C 60.398438 193.851562 60.574219 194.621094 60.789062 195.378906 C 61.003906 196.140625 61.257812 196.886719 61.546875 197.617188 C 61.839844 198.351562 62.167969 199.066406 62.535156 199.765625 C 62.898438 200.46875 63.296875 201.144531 63.734375 201.804688 C 64.167969 202.460938 64.636719 203.097656 65.136719 203.707031 L 329.132812 575.136719 L 330.167969 576.402344 C 330.976562 577.382812 331.808594 578.339844 332.671875 579.273438 C 333.53125 580.207031 334.417969 581.113281 335.328125 582 C 336.238281 582.882812 337.171875 583.742188 338.128906 584.578125 C 339.085938 585.410156 340.066406 586.214844 341.070312 586.996094 C 342.074219 587.773438 343.097656 588.527344 344.140625 589.25 C 345.183594 589.972656 346.246094 590.664062 347.328125 591.328125 C 348.410156 591.996094 349.511719 592.628906 350.628906 593.230469 C 351.746094 593.835938 352.878906 594.410156 354.027344 594.949219 C 355.175781 595.492188 356.335938 596 357.515625 596.480469 C 358.691406 596.957031 359.878906 597.402344 361.082031 597.8125 C 362.28125 598.226562 363.492188 598.601562 364.714844 598.949219 C 365.9375 599.292969 367.167969 599.605469 368.40625 599.882812 C 369.648438 600.160156 370.894531 600.402344 372.144531 600.613281 C 373.398438 600.820312 374.65625 600.996094 375.917969 601.136719 C 377.179688 601.273438 378.445312 601.378906 379.714844 601.449219 C 380.980469 601.519531 382.25 601.554688 383.519531 601.554688 C 384.789062 601.554688 386.058594 601.519531 387.328125 601.449219 C 388.59375 601.378906 389.859375 601.273438 391.121094 601.136719 C 392.386719 600.996094 393.640625 600.820312 394.894531 600.613281 C 396.148438 600.402344 397.394531 600.160156 398.632812 599.882812 C 399.871094 599.605469 401.101562 599.292969 402.324219 598.949219 C 403.546875 598.605469 404.757812 598.226562 405.960938 597.8125 C 407.160156 597.402344 408.351562 596.957031 409.527344 596.480469 C 410.703125 596 411.867188 595.492188 413.015625 594.949219 C 414.164062 594.410156 415.296875 593.835938 416.414062 593.230469 C 417.53125 592.628906 418.628906 591.996094 419.710938 591.328125 C 420.792969 590.664062 421.855469 589.972656 422.902344 589.25 C 423.945312 588.527344 424.96875 587.773438 425.96875 586.996094 C 426.972656 586.214844 427.953125 585.410156 428.910156 584.578125 C 429.867188 583.742188 430.804688 582.882812 431.714844 582 C 432.625 581.113281 433.507812 580.207031 434.371094 579.273438 C 435.230469 578.339844 436.066406 577.382812 436.871094 576.402344 L 437.910156 575.136719 L 701.902344 203.707031 C 702.335938 203.09375 702.742188 202.460938 703.113281 201.808594 C 703.484375 201.152344 703.820312 200.484375 704.128906 199.796875 C 704.433594 199.113281 704.707031 198.410156 704.945312 197.699219 C 705.179688 196.984375 705.382812 196.261719 705.550781 195.53125 C 705.714844 194.796875 705.847656 194.058594 705.941406 193.3125 C 706.035156 192.566406 706.09375 191.820312 706.113281 191.070312 C 706.136719 190.316406 706.121094 189.566406 706.066406 188.816406 C 706.015625 188.070312 705.925781 187.324219 705.800781 186.582031 C 705.675781 185.839844 705.515625 185.109375 705.316406 184.382812 C 705.121094 183.660156 704.886719 182.945312 704.621094 182.242188 C 704.355469 181.539062 704.054688 180.851562 703.71875 180.179688 C 703.386719 179.507812 703.019531 178.851562 702.621094 178.214844 C 702.222656 177.578125 701.792969 176.960938 701.335938 176.367188 C 700.875 175.769531 700.390625 175.199219 699.875 174.652344 C 699.359375 174.105469 698.820312 173.582031 698.253906 173.085938 C 697.6875 172.59375 697.101562 172.128906 696.488281 171.691406 Z M 696.488281 171.691406 " fill-opacity="1" fill-rule="nonzero"/><g clip-path="url(#4f1e582497)"><path fill="#3a7be4" d="M 711.183594 188.796875 C 710.539062 188.339844 709.875 187.914062 709.1875 187.519531 C 708.5 187.128906 707.796875 186.769531 707.078125 186.445312 C 706.355469 186.121094 705.621094 185.835938 704.871094 185.582031 C 704.121094 185.332031 703.363281 185.117188 702.59375 184.941406 C 701.820312 184.765625 701.042969 184.625 700.261719 184.523438 C 699.476562 184.425781 698.6875 184.363281 697.898438 184.339844 C 697.109375 184.316406 696.320312 184.332031 695.53125 184.386719 C 694.742188 184.4375 693.957031 184.53125 693.179688 184.664062 C 692.398438 184.792969 691.628906 184.964844 690.863281 185.171875 C 690.101562 185.378906 689.351562 185.621094 688.613281 185.902344 C 687.875 186.183594 687.148438 186.5 686.441406 186.851562 C 685.734375 187.203125 685.046875 187.585938 684.375 188.007812 C 683.707031 188.425781 683.058594 188.878906 682.433594 189.359375 C 681.808594 189.84375 681.207031 190.355469 680.632812 190.898438 C 680.058594 191.4375 679.507812 192.007812 678.992188 192.601562 C 678.472656 193.199219 677.984375 193.820312 677.523438 194.460938 L 401.753906 582.277344 C 401.1875 582.917969 400.589844 583.523438 399.960938 584.101562 C 399.332031 584.675781 398.675781 585.21875 397.988281 585.726562 C 397.304688 586.230469 396.589844 586.699219 395.855469 587.128906 C 395.121094 587.5625 394.363281 587.953125 393.585938 588.304688 C 392.808594 588.652344 392.011719 588.960938 391.203125 589.230469 C 390.390625 589.496094 389.570312 589.71875 388.734375 589.898438 C 387.902344 590.078125 387.058594 590.210938 386.210938 590.300781 C 385.363281 590.394531 384.511719 590.4375 383.65625 590.4375 C 382.804688 590.4375 381.953125 590.394531 381.105469 590.300781 C 380.257812 590.210938 379.414062 590.078125 378.582031 589.898438 C 377.746094 589.71875 376.925781 589.496094 376.113281 589.230469 C 375.304688 588.960938 374.507812 588.652344 373.730469 588.304688 C 372.953125 587.953125 372.195312 587.5625 371.460938 587.128906 C 370.722656 586.699219 370.011719 586.230469 369.324219 585.726562 C 368.640625 585.21875 367.980469 584.675781 367.351562 584.101562 C 366.722656 583.523438 366.125 582.917969 365.5625 582.277344 L 89.550781 194.582031 C 89.121094 193.875 88.660156 193.191406 88.164062 192.53125 C 87.667969 191.875 87.136719 191.242188 86.574219 190.636719 C 86.011719 190.03125 85.421875 189.457031 84.800781 188.910156 C 84.179688 188.367188 83.53125 187.855469 82.859375 187.378906 C 82.183594 186.898438 81.488281 186.457031 80.769531 186.050781 C 80.050781 185.644531 79.3125 185.273438 78.554688 184.945312 C 77.796875 184.613281 77.023438 184.324219 76.238281 184.070312 C 75.449219 183.820312 74.652344 183.609375 73.84375 183.4375 C 73.035156 183.269531 72.21875 183.140625 71.398438 183.054688 C 70.574219 182.96875 69.75 182.925781 68.925781 182.925781 C 68.097656 182.925781 67.273438 182.964844 66.453125 183.046875 C 65.628906 183.132812 64.816406 183.257812 64.003906 183.425781 C 63.195312 183.589844 62.398438 183.800781 61.609375 184.046875 C 60.820312 184.296875 60.046875 184.585938 59.289062 184.914062 C 58.53125 185.242188 57.792969 185.609375 57.074219 186.011719 C 56.351562 186.417969 55.652344 186.859375 54.980469 187.332031 C 54.304688 187.808594 53.65625 188.320312 53.03125 188.863281 C 52.410156 189.402344 51.816406 189.976562 51.25 190.582031 C 50.6875 191.183594 50.15625 191.816406 49.65625 192.472656 C 49.15625 193.128906 48.695312 193.8125 48.265625 194.519531 C 47.835938 195.222656 47.445312 195.949219 47.089844 196.695312 C 46.734375 197.441406 46.421875 198.203125 46.144531 198.980469 C 45.871094 199.757812 45.632812 200.550781 45.4375 201.351562 C 45.246094 202.15625 45.089844 202.964844 44.980469 203.78125 C 44.871094 204.601562 44.800781 205.421875 44.773438 206.246094 C 44.746094 207.074219 44.761719 207.898438 44.820312 208.71875 C 44.878906 209.542969 44.976562 210.363281 45.121094 211.175781 C 45.261719 211.988281 45.445312 212.792969 45.671875 213.585938 C 45.894531 214.382812 46.160156 215.164062 46.464844 215.929688 C 46.769531 216.695312 47.113281 217.445312 47.496094 218.179688 C 47.878906 218.910156 48.296875 219.621094 48.753906 220.308594 C 49.210938 221 49.699219 221.664062 50.222656 222.300781 L 326.597656 610.960938 L 327.683594 612.285156 C 328.527344 613.3125 329.402344 614.3125 330.300781 615.289062 C 331.203125 616.265625 332.128906 617.214844 333.082031 618.140625 C 334.039062 619.066406 335.015625 619.96875 336.019531 620.839844 C 337.019531 621.710938 338.046875 622.554688 339.097656 623.371094 C 340.144531 624.1875 341.21875 624.972656 342.308594 625.726562 C 343.402344 626.484375 344.515625 627.210938 345.648438 627.90625 C 346.78125 628.601562 347.933594 629.265625 349.101562 629.898438 C 350.269531 630.527344 351.457031 631.128906 352.660156 631.695312 C 353.863281 632.261719 355.078125 632.792969 356.3125 633.292969 C 357.542969 633.792969 358.789062 634.257812 360.046875 634.691406 C 361.300781 635.121094 362.570312 635.515625 363.851562 635.878906 C 365.128906 636.238281 366.417969 636.566406 367.714844 636.855469 C 369.011719 637.144531 370.316406 637.398438 371.628906 637.617188 C 372.941406 637.835938 374.257812 638.019531 375.578125 638.164062 C 376.898438 638.3125 378.222656 638.421875 379.550781 638.496094 C 380.878906 638.566406 382.207031 638.605469 383.535156 638.605469 C 384.867188 638.605469 386.195312 638.566406 387.523438 638.496094 C 388.851562 638.421875 390.175781 638.3125 391.496094 638.164062 C 392.816406 638.019531 394.132812 637.835938 395.445312 637.617188 C 396.757812 637.398438 398.0625 637.144531 399.359375 636.855469 C 400.65625 636.566406 401.945312 636.238281 403.222656 635.878906 C 404.503906 635.515625 405.769531 635.121094 407.027344 634.691406 C 408.285156 634.257812 409.53125 633.792969 410.761719 633.292969 C 411.996094 632.792969 413.210938 632.261719 414.414062 631.695312 C 415.617188 631.128906 416.804688 630.527344 417.972656 629.898438 C 419.140625 629.265625 420.292969 628.601562 421.425781 627.90625 C 422.558594 627.210938 423.671875 626.484375 424.765625 625.726562 C 425.855469 624.972656 426.929688 624.1875 427.976562 623.371094 C 429.027344 622.554688 430.054688 621.710938 431.054688 620.839844 C 432.058594 619.96875 433.035156 619.066406 433.992188 618.140625 C 434.945312 617.214844 435.871094 616.265625 436.769531 615.289062 C 437.671875 614.3125 438.546875 613.3125 439.390625 612.285156 L 440.476562 610.960938 L 716.851562 222.300781 C 717.304688 221.660156 717.726562 220.996094 718.117188 220.3125 C 718.503906 219.628906 718.859375 218.929688 719.179688 218.210938 C 719.5 217.492188 719.785156 216.757812 720.035156 216.011719 C 720.28125 215.269531 720.492188 214.511719 720.667969 213.746094 C 720.84375 212.976562 720.980469 212.203125 721.078125 211.425781 C 721.175781 210.644531 721.238281 209.863281 721.257812 209.074219 C 721.28125 208.289062 721.265625 207.503906 721.210938 206.722656 C 721.15625 205.9375 721.0625 205.15625 720.929688 204.382812 C 720.800781 203.605469 720.632812 202.839844 720.425781 202.082031 C 720.21875 201.320312 719.976562 200.574219 719.695312 199.839844 C 719.417969 199.105469 719.101562 198.386719 718.753906 197.679688 C 718.402344 196.976562 718.019531 196.292969 717.601562 195.625 C 717.183594 194.957031 716.734375 194.3125 716.253906 193.691406 C 715.773438 193.066406 715.265625 192.46875 714.726562 191.898438 C 714.1875 191.324219 713.621094 190.777344 713.03125 190.261719 C 712.4375 189.742188 711.820312 189.253906 711.183594 188.796875 Z M 711.183594 188.796875 " fill-opacity="1" fill-rule="nonzero"/></g><g clip-path="url(#000a5423bb)"><g clip-path="url(#5a0a0b4ad6)"><path fill="#3a7be4" d="M 41.015625 164.039062 L 105.769531 164.039062 L 105.769531 231.308594 L 41.015625 231.308594 Z M 41.015625 164.039062 " fill-opacity="1" fill-rule="nonzero"/></g></g><g clip-path="url(#3096a4975c)"><g clip-path="url(#12883ccef7)"><path fill="#3a7be4" d="M 653.136719 164.039062 L 717.890625 164.039062 L 717.890625 231.308594 L 653.136719 231.308594 Z M 653.136719 164.039062 " fill-opacity="1" fill-rule="nonzero"/></g></g></svg>