<svg xmlns="http://www.w3.org/2000/svg" width="23.57" height="23.604" viewBox="0 0 23.57 23.604">
  <g id="phone-call" transform="translate(-0.344)">
    <g id="Group_55" data-name="Group 55" transform="translate(0.344 0)">
      <path id="Path_13" data-name="Path 13" d="M18.982,40.662A2.322,2.322,0,0,0,17.3,39.89a2.4,2.4,0,0,0-1.7.767L14.02,42.227c-.13-.07-.259-.135-.384-.2-.179-.09-.349-.174-.493-.264a17.11,17.11,0,0,1-4.1-3.736A10.094,10.094,0,0,1,7.7,35.9c.409-.374.787-.762,1.156-1.136.139-.139.279-.284.418-.423a2.286,2.286,0,0,0,0-3.447l-1.36-1.36c-.154-.154-.314-.314-.463-.473-.3-.309-.613-.628-.937-.927a2.358,2.358,0,0,0-1.669-.732,2.44,2.44,0,0,0-1.694.732l-.01.01L1.446,29.857A3.645,3.645,0,0,0,.365,32.174,8.733,8.733,0,0,0,1,35.87a21.45,21.45,0,0,0,3.811,6.357,23.444,23.444,0,0,0,7.806,6.113A12.163,12.163,0,0,0,17,49.635c.1,0,.214.01.314.01a3.754,3.754,0,0,0,2.874-1.235c0-.01.015-.015.02-.025a11.326,11.326,0,0,1,.872-.9c.214-.2.433-.418.648-.643a2.485,2.485,0,0,0,.752-1.724,2.394,2.394,0,0,0-.767-1.709Zm1.783,5.246s0,0,0,0c-.194.209-.394.4-.608.608a13.1,13.1,0,0,0-.961,1,2.4,2.4,0,0,1-1.873.792c-.075,0-.154,0-.229,0a10.8,10.8,0,0,1-3.886-1.166,22.129,22.129,0,0,1-7.353-5.759A20.225,20.225,0,0,1,2.268,35.4a7.113,7.113,0,0,1-.558-3.119A2.287,2.287,0,0,1,2.4,30.8l1.7-1.7a1.132,1.132,0,0,1,.757-.354,1.066,1.066,0,0,1,.727.349l.015.015c.3.284.593.578.9.892.154.159.314.319.473.483l1.36,1.36a.951.951,0,0,1,0,1.544c-.144.144-.284.289-.428.428-.418.428-.817.827-1.25,1.216-.01.01-.02.015-.025.025a1.016,1.016,0,0,0-.259,1.131l.015.045a10.919,10.919,0,0,0,1.609,2.625l0,0a18.285,18.285,0,0,0,4.424,4.025,6.8,6.8,0,0,0,.613.334c.179.09.349.174.493.264.02.01.04.025.06.035a1.08,1.08,0,0,0,.493.125,1.065,1.065,0,0,0,.757-.344l1.7-1.7a1.127,1.127,0,0,1,.752-.374,1.015,1.015,0,0,1,.717.364l.01.01,2.745,2.745A.985.985,0,0,1,20.765,45.908Z" transform="translate(-0.344 -26.041)" fill="#393939"/>
      <path id="Path_14" data-name="Path 14" d="M245.5,87.259a6.411,6.411,0,0,1,5.221,5.221.668.668,0,0,0,.663.558.891.891,0,0,0,.115-.01.673.673,0,0,0,.553-.777,7.753,7.753,0,0,0-6.317-6.317.676.676,0,0,0-.777.548A.665.665,0,0,0,245.5,87.259Z" transform="translate(-232.758 -81.645)" fill="#393939"/>
      <path id="Path_15" data-name="Path 15" d="M259.958,10.412a12.766,12.766,0,0,0-10.4-10.4.672.672,0,1,0-.219,1.325,11.4,11.4,0,0,1,9.3,9.3.668.668,0,0,0,.663.558.889.889,0,0,0,.115-.01A.66.66,0,0,0,259.958,10.412Z" transform="translate(-236.399 0)" fill="#393939"/>
    </g>
  </g>
</svg>
