<svg xmlns="http://www.w3.org/2000/svg" width="85.381" height="38.297" viewBox="0 0 85.381 38.297">
  <g id="Group_72" data-name="Group 72" transform="translate(-303.773 -155.137)">
    <g id="Group_70" data-name="Group 70" transform="translate(303.773 155.137)">
      <path id="Path_19" data-name="Path 19" d="M355.048,154.989,342.3,174.137l12.752,19.148L367.8,174.137Z" transform="translate(-336.068 -154.989)" fill="#6fc0e5" opacity="0.6"/>
      <path id="Path_20" data-name="Path 20" d="M410.592,171.923l-18.951,13.044,4.731,22.515,18.951-13.044Z" transform="translate(-377.435 -169.185)" fill="#6fc0e5" opacity="0.6"/>
      <path id="Path_21" data-name="Path 21" d="M308.5,171.923l-4.731,22.515,18.951,13.044,4.731-22.515Z" transform="translate(-303.773 -169.185)" fill="#6fc0e5" opacity="0.6"/>
    </g>
    <g id="Group_71" data-name="Group 71" transform="translate(349.933 169.137)">
      <path id="Path_22" data-name="Path 22" d="M583.1,273.705V262.49h4.612a2.892,2.892,0,0,1,1.311.3,3.348,3.348,0,0,1,1.035.8,3.818,3.818,0,0,1,.679,1.122,3.418,3.418,0,0,1,.245,1.256,3.825,3.825,0,0,1-.229,1.311,3.6,3.6,0,0,1-.648,1.122,3.2,3.2,0,0,1-1,.782,2.806,2.806,0,0,1-1.287.292H583.9v4.233Zm.805-4.976h3.87a2.132,2.132,0,0,0,.995-.229,2.3,2.3,0,0,0,.75-.616,2.862,2.862,0,0,0,.474-.885,3.25,3.25,0,0,0,.166-1.035,2.824,2.824,0,0,0-.2-1.05,2.913,2.913,0,0,0-.537-.876,2.582,2.582,0,0,0-.79-.6,2.138,2.138,0,0,0-.956-.221H583.9Z" transform="translate(-583.097 -262.174)" fill="#6fc0e5"/>
      <path id="Path_23" data-name="Path 23" d="M626.747,288.13q.142,0,.419-.016a1,1,0,0,0,.419-.095.5.5,0,0,0,.15-.15,3.091,3.091,0,0,0,.229-.4q.142-.284.364-.8t.553-1.335l-3.665-8.214h.837l3.254,7.44,3.049-7.44h.774l-4.5,10.8a1.346,1.346,0,0,1-.624.75,2.2,2.2,0,0,1-.94.182h-.158a.807.807,0,0,1-.158-.016Z" transform="translate(-616.575 -273.803)" fill="#6fc0e5"/>
      <path id="Path_24" data-name="Path 24" d="M672.22,274.045q-.063.032-.213.118a2.171,2.171,0,0,1-.379.166,4.687,4.687,0,0,1-.513.142,2.853,2.853,0,0,1-.616.063,2.015,2.015,0,0,1-.624-.095,1.477,1.477,0,0,1-.513-.284,1.445,1.445,0,0,1-.356-.458,1.4,1.4,0,0,1-.134-.632v-6.192h-1.153v-.648h1.153v-2.812h.79v2.812h1.927v.648h-1.927v6a.793.793,0,0,0,.316.687,1.206,1.206,0,0,0,.727.229,1.986,1.986,0,0,0,.845-.166q.355-.166.434-.213Z" transform="translate(-650.359 -262.909)" fill="#6fc0e5"/>
      <path id="Path_25" data-name="Path 25" d="M697.5,284.94a3.828,3.828,0,0,1-1.611-.339,3.976,3.976,0,0,1-1.287-.932,4.4,4.4,0,0,1-.853-1.366,4.443,4.443,0,0,1-.308-1.659,4.352,4.352,0,0,1,1.153-2.978,3.907,3.907,0,0,1,1.279-.908,3.866,3.866,0,0,1,1.6-.332,3.771,3.771,0,0,1,1.6.34,4.033,4.033,0,0,1,1.271.916,4.351,4.351,0,0,1,1.153,2.962c0,.053,0,.118-.008.2s-.008.129-.008.15h-7.219a3.657,3.657,0,0,0,.332,1.319,3.74,3.74,0,0,0,.719,1.05,3.235,3.235,0,0,0,1,.7,2.961,2.961,0,0,0,1.216.253,3.092,3.092,0,0,0,.845-.119,3.378,3.378,0,0,0,.774-.324,2.767,2.767,0,0,0,.632-.5,2.334,2.334,0,0,0,.434-.64l.695.19a2.878,2.878,0,0,1-.529.814,3.475,3.475,0,0,1-.79.64,4.043,4.043,0,0,1-.987.418A4.094,4.094,0,0,1,697.5,284.94Zm3.222-4.581a3.734,3.734,0,0,0-.324-1.327,3.546,3.546,0,0,0-.711-1.034,3.192,3.192,0,0,0-1-.679,3.145,3.145,0,0,0-2.432,0,3.189,3.189,0,0,0-1,.679,3.287,3.287,0,0,0-.7,1.043,4.011,4.011,0,0,0-.308,1.319Z" transform="translate(-670.801 -273.251)" fill="#6fc0e5"/>
      <path id="Path_26" data-name="Path 26" d="M747.038,272.481l-3.207-4.391-1.943,1.785v2.606h-.79V260.95h.79v8.056l4.992-4.723h.916l-3.443,3.333,3.554,4.865Z" transform="translate(-708.686 -260.95)" fill="#6fc0e5"/>
    </g>
  </g>
</svg>
