<svg xmlns="http://www.w3.org/2000/svg" width="72" height="72" viewBox="0 0 72 72">
  <g id="Group_742" data-name="Group 742" transform="translate(-1298.027 -2563.875)">
    <rect id="Rectangle_1213" data-name="Rectangle 1213" width="72" height="72" transform="translate(1298.027 2563.875)" fill="#f5f5f5"/>
    <g id="mail_1_" data-name="mail (1)" transform="translate(1314.141 2580.16)">
      <path id="Path_1576" data-name="Path 1576" d="M132.3,14.184l-7.2,5.841h2.029l6.2-5.029Zm0,0" transform="translate(-112.412 -12.295)" fill="#d4e1f4"/>
      <path id="Path_1577" data-name="Path 1577" d="M14.029,172.979,12,171.727v17.756a2.065,2.065,0,0,0,.279,1.036l1.75-1.294Zm0,0" transform="translate(-10.782 -153.854)" fill="#d9d9d9"/>
      <path id="Path_1578" data-name="Path 1578" d="M18.24,124.262,21.4,121.6v-2.654l-4.99,4.2,4.99,3.079v-.011Zm0,0" transform="translate(-14.749 -106.427)" fill="#d9d9d9"/>
      <path id="Path_1579" data-name="Path 1579" d="M39.313,264.7l-1.659-1.024-13.931,10.3a2.064,2.064,0,0,0,.892.2h3.044a2.064,2.064,0,0,1-.892-.2Zm0,0" transform="translate(-21.316 -236.477)" fill="#d9d9d9"/>
      <path id="Path_1580" data-name="Path 1580" d="M39.768,16.744c0-.006,0-.013,0-.019a.63.63,0,0,0-.015-.07l0-.011c-.006-.02-.013-.039-.02-.059l-.008-.017a.551.551,0,0,0-.028-.055l-.005-.01a.631.631,0,0,0-.042-.061l-.008-.009c-.013-.016-.027-.031-.041-.045l-.016-.015c-.013-.012-.027-.024-.04-.035l-.017-.013-.005,0-6.4-4.6V10.491a2.765,2.765,0,0,0-2.762-2.762H29.269L20.263.631A.609.609,0,0,0,19.5.636L10.761,7.729H9.417a2.765,2.765,0,0,0-2.762,2.762v.435L.217,16.348A.607.607,0,0,0,0,16.813V35.629a3.287,3.287,0,0,0,.9,2.259.6.6,0,0,0,.1.1,3.287,3.287,0,0,0,2.306.943H36.473a3.3,3.3,0,0,0,3.3-3.3V16.813s0-.008,0-.011A.553.553,0,0,0,39.768,16.744ZM24.523,26.538,38.555,17.9V35.629a2.07,2.07,0,0,1-.292,1.057Zm13.543-9.764-4.949,3.046v-6.6ZM19.892,1.889,27.3,7.729H12.693ZM9.417,8.947h1.69l.034.042.051-.042H28.846l.031.024.019-.024h1.458A1.546,1.546,0,0,1,31.9,10.491v1.353a.611.611,0,0,0,0,.333v8.391L20.979,27.29a2.071,2.071,0,0,1-2.184,0L7.873,20.549V10.491A1.546,1.546,0,0,1,9.417,8.947ZM1.5,36.666a2.062,2.062,0,0,1-.279-1.036V17.874l14,8.641ZM6.655,19.8l-4.99-3.079,4.99-4.2ZM3.3,37.711a2.061,2.061,0,0,1-.892-.2l13.93-10.3,1.818,1.122a3.281,3.281,0,0,0,3.462,0l1.788-1.1L37.341,37.519a2.06,2.06,0,0,1-.867.191Zm0,0" fill="#393939"/>
      <g id="Group_737" data-name="Group 737" transform="translate(11.582 11.933)">
        <path id="Path_1581" data-name="Path 1581" d="M242.354,173.184h-2.722a.609.609,0,1,0,0,1.218h2.722a.609.609,0,1,0,0-1.218Zm0,0" transform="translate(-226.354 -167.096)" fill="#f3581e"/>
        <path id="Path_1582" data-name="Path 1582" d="M125.872,173.792a.608.608,0,0,0-.609-.609H114.757a.609.609,0,1,0,0,1.218h10.506A.609.609,0,0,0,125.872,173.792Zm0,0" transform="translate(-114.148 -167.096)" fill="#f3581e"/>
        <path id="Path_1583" data-name="Path 1583" d="M209.632,204.4H215.4a.609.609,0,0,0,0-1.218h-5.766a.609.609,0,1,0,0,1.218Zm0,0" transform="translate(-199.397 -194.052)" fill="#f3581e"/>
        <path id="Path_1584" data-name="Path 1584" d="M114.757,203.184a.609.609,0,1,0,0,1.218h7.462a.609.609,0,1,0,0-1.218Zm0,0" transform="translate(-114.148 -194.052)" fill="#f3581e"/>
        <path id="Path_1585" data-name="Path 1585" d="M114.757,114.4h3.4a.609.609,0,0,0,0-1.218h-3.4a.609.609,0,1,0,0,1.218Zm0,0" transform="translate(-114.148 -113.184)" fill="#f3581e"/>
        <path id="Path_1586" data-name="Path 1586" d="M170.471,143.184H159.632a.609.609,0,0,0,0,1.218h10.839a.609.609,0,0,0,0-1.218Zm0,0" transform="translate(-154.47 -140.14)" fill="#f3581e"/>
        <path id="Path_1587" data-name="Path 1587" d="M114.757,144.4h2.389a.609.609,0,1,0,0-1.218h-2.389a.609.609,0,1,0,0,1.218Zm0,0" transform="translate(-114.148 -140.14)" fill="#f3581e"/>
      </g>
    </g>
  </g>
</svg>
